<svg width="146" height="125" viewBox="0 0 146 125" fill="none" xmlns="http://www.w3.org/2000/svg">
<path d="M13.3164 106.75C12.9648 104.711 11.3242 103.539 9.26172 103.539C6.47266 103.539 4.52734 105.672 4.52734 109.516C4.52734 113.406 6.49609 115.492 9.26172 115.492C11.2773 115.492 12.918 114.367 13.3164 112.375H16.3867C15.918 115.633 13.2461 118.234 9.21484 118.234C4.73828 118.234 1.45703 114.977 1.45703 109.516C1.45703 104.031 4.78516 100.797 9.21484 100.797C12.9648 100.797 15.8711 102.977 16.3867 106.75H13.3164ZM18.2852 114.414C18.2852 111.555 20.6523 110.711 23.0195 110.57C23.8984 110.512 25.7266 110.406 26.2773 110.383V109.375C26.2773 108.109 25.457 107.383 23.9805 107.383C22.6445 107.383 21.8242 107.992 21.5898 108.906H18.707C18.918 106.75 20.8633 105.109 24.0508 105.109C26.4648 105.109 29.2539 106.094 29.2539 109.492V118H26.3945V116.242H26.3008C25.7383 117.32 24.543 118.258 22.5508 118.258C20.1133 118.258 18.2852 116.922 18.2852 114.414ZM21.168 114.391C21.168 115.492 22.0586 116.055 23.3242 116.055C25.1289 116.055 26.3008 114.859 26.3008 113.43V112.375L23.4883 112.562C22.0586 112.68 21.168 113.266 21.168 114.391ZM35.0664 101.031V118H32.0664V101.031H35.0664ZM43.4805 118.258C39.7773 118.258 37.3867 115.633 37.3867 111.695C37.3867 107.734 39.7773 105.109 43.4805 105.109C47.207 105.109 49.5742 107.734 49.5742 111.695C49.5742 115.633 47.207 118.258 43.4805 118.258ZM43.5039 115.867C45.543 115.867 46.5508 114.016 46.5508 111.672C46.5508 109.352 45.543 107.477 43.5039 107.477C41.418 107.477 40.4102 109.352 40.4102 111.672C40.4102 114.016 41.418 115.867 43.5039 115.867ZM51.8945 118V105.273H54.8008V107.383H54.9414C55.3867 105.93 56.6289 105.086 58.082 105.086C58.4102 105.086 58.8789 105.109 59.1602 105.156V107.922C58.9023 107.828 58.2695 107.734 57.7773 107.734C56.1133 107.734 54.8945 108.883 54.8945 110.5V118H51.8945ZM60.9414 118V105.273H63.9414V118H60.9414ZM62.4648 103.469C61.5273 103.469 60.7305 102.742 60.7305 101.828C60.7305 100.938 61.5273 100.211 62.4648 100.211C63.4258 100.211 64.1992 100.938 64.1992 101.828C64.1992 102.742 63.4258 103.469 62.4648 103.469ZM72.4492 118.258C68.6055 118.258 66.2617 115.703 66.2617 111.719C66.2617 107.781 68.6523 105.109 72.2852 105.109C75.4023 105.109 78.0977 107.055 78.0977 111.531V112.469H69.2148C69.25 114.637 70.5273 115.914 72.4727 115.914C73.7852 115.914 74.6758 115.352 75.0508 114.602H77.9805C77.4414 116.805 75.4023 118.258 72.4492 118.258ZM69.2383 110.43H75.2383C75.2148 108.695 74.0664 107.43 72.332 107.43C70.5273 107.43 69.332 108.801 69.2383 110.43ZM88.1289 109.703V112.164H80.4883V109.703H88.1289ZM91.0586 118V105.273H93.918V107.43H94.082C94.5977 105.977 95.8867 105.109 97.5742 105.109C99.3086 105.109 100.527 105.977 101.02 107.43H101.16C101.723 106.023 103.129 105.109 104.98 105.109C107.301 105.109 108.941 106.609 108.941 109.445V118H105.965V109.914C105.965 108.32 105.004 107.617 103.785 107.617C102.309 107.617 101.465 108.625 101.465 110.055V118H98.5586V109.797C98.5586 108.484 97.668 107.617 96.4023 107.617C95.1133 107.617 94.0586 108.672 94.0586 110.266V118H91.0586ZM111.215 114.414C111.215 111.555 113.582 110.711 115.949 110.57C116.828 110.512 118.656 110.406 119.207 110.383V109.375C119.207 108.109 118.387 107.383 116.91 107.383C115.574 107.383 114.754 107.992 114.52 108.906H111.637C111.848 106.75 113.793 105.109 116.98 105.109C119.395 105.109 122.184 106.094 122.184 109.492V118H119.324V116.242H119.23C118.668 117.32 117.473 118.258 115.48 118.258C113.043 118.258 111.215 116.922 111.215 114.414ZM114.098 114.391C114.098 115.492 114.988 116.055 116.254 116.055C118.059 116.055 119.23 114.859 119.23 113.43V112.375L116.418 112.562C114.988 112.68 114.098 113.266 114.098 114.391ZM131.348 105.273V107.57H128.84V114.18C128.84 115.398 129.449 115.656 130.199 115.656C130.551 115.656 131.137 115.633 131.512 115.609V118.047C131.16 118.117 130.574 118.164 129.824 118.164C127.574 118.164 125.84 117.062 125.863 114.672V107.57H124.035V105.273H125.863V102.227H128.84V105.273H131.348ZM139.152 118.258C135.309 118.258 132.965 115.703 132.965 111.719C132.965 107.781 135.355 105.109 138.988 105.109C142.105 105.109 144.801 107.055 144.801 111.531V112.469H135.918C135.953 114.637 137.23 115.914 139.176 115.914C140.488 115.914 141.379 115.352 141.754 114.602H144.684C144.145 116.805 142.105 118.258 139.152 118.258ZM135.941 110.43H141.941C141.918 108.695 140.77 107.43 139.035 107.43C137.23 107.43 136.035 108.801 135.941 110.43Z" fill="white"/>
<path d="M97 79.2187L49 79.2187C40.5941 79.2187 33.7813 72.4059 33.7813 64L33.7813 16C33.7813 7.5955 40.5942 0.781259 49 0.78126L97 0.781264C105.404 0.781265 112.219 7.59555 112.219 16L112.219 64C112.219 72.4058 105.405 79.2187 97 79.2187ZM49 3.21876C41.9512 3.21876 36.2188 8.95119 36.2188 16L36.2188 64C36.2188 71.0488 41.9512 76.7812 49 76.7812L97 76.7812C104.049 76.7812 109.781 71.0488 109.781 64L109.781 16C109.781 8.95119 104.049 3.21876 97 3.21876L49 3.21876Z" fill="white" stroke="white" stroke-width="1.5625"/>
<path d="M75.2853 63.0294L71.0667 56L61.7813 56L61 56L61 56.7812L61.025 56.7812C61.4275 63.045 66.6345 68 73 68C79.3655 68 84.5726 63.045 84.975 56.7813L75.2853 63.0294ZM75.2853 63.0294C75.852 63.9761 77.0827 64.2853 78.0294 63.7147L75.2853 63.0294ZM71.7366 55.598L71.509 55.2188L71.0667 55.2188L61 55.2187L60.2188 55.2187L60.2188 56C60.2188 63.0594 65.9406 68.7812 73 68.7812C80.0594 68.7812 85.7813 63.0594 85.7813 56L85.7813 55.2188L85 55.2188L75.732 55.2188L74.3521 55.2188L75.0621 56.402L78.0448 61.3725C78.0448 61.3726 78.0448 61.3726 78.0448 61.3726C78.391 61.9498 78.2037 62.6991 77.6275 63.0448L77.6261 63.0456C77.0506 63.3925 76.3008 63.2047 75.9556 62.6281L75.9552 62.6274L71.7366 55.598ZM88.2188 56C88.2188 64.3912 81.3912 71.2187 73 71.2187C64.6088 71.2187 57.7813 64.3912 57.7813 56C57.7813 54.2221 59.2221 52.7813 61 52.7813L85 52.7813C86.7779 52.7813 88.2188 54.2221 88.2188 56Z" fill="white" stroke="white" stroke-width="1.5625"/>
<path d="M97 22.8C86.1808 26.2503 80.755 27.2887 81.0085 29.9918C81.3567 33.7054 90.8067 38.6569 97 40" stroke="white" stroke-width="4"/>
<path d="M49 22.8C59.8192 26.2503 65.245 27.2887 64.9915 29.9918C64.6433 33.7054 55.1933 38.6569 49 40" stroke="white" stroke-width="4"/>
</svg>
